<?xml version="1.0" encoding="UTF-8" standalone="no"?>
<svg
   viewBox="35 122 340 170"
   version="1.1"
   id="svg10"
   xmlns:xlink="http://www.w3.org/1999/xlink"
   xmlns="http://www.w3.org/2000/svg">
  <defs>
    <linearGradient id="sunGrad" x1="159" y1="131" x2="241" y2="213"
       gradientUnits="userSpaceOnUse"
       gradientTransform="matrix(1.0252846,0,0,1.0025822,-2.0829519,-0.80626114)">
      <stop offset="0%"   style="stop-color:#FFB347;stop-opacity:1" />
      <stop offset="100%" style="stop-color:#FF9533;stop-opacity:1" />
    </linearGradient>
    <linearGradient id="waveGrad" x1="0%" y1="0%" x2="100%" y2="0%">
      <stop offset="0%"   style="stop-color:#52B5E5;stop-opacity:1" />
      <stop offset="100%" style="stop-color:#3495C9;stop-opacity:1" />
    </linearGradient>
    <linearGradient xlink:href="#waveGrad" id="linearGradient11"
       x1="11.331958" y1="689.71585" x2="106.40267" y2="689.71585"
       gradientTransform="matrix(3.4833747,0,0,0.29509663,-2.0829519,-0.80626114)"
       gradientUnits="userSpaceOnUse" />
    <linearGradient xlink:href="#waveGrad" id="linearGradient12"
       x1="12.661131" y1="639.69987" x2="103.99199" y2="639.69987"
       gradientTransform="matrix(3.6035615,0,0,0.28525449,-2.0829519,-0.80626114)"
       gradientUnits="userSpaceOnUse" />
  </defs>

  <!-- Wave 1 white outline (thin) -->
  <path d="m 49.18128,194.69728 q 61.51708,-15.03873 123.03416,0 61.51707,15.03873 123.03415,0 35.88496,-8.02066 71.76993,0"
     stroke="#ffffff" stroke-width="4" fill="none" stroke-linecap="round" opacity="0.85" />
  <!-- Wave 1 coloured -->
  <path d="m 49.18128,194.69728 q 61.51708,-15.03873 123.03416,0 61.51707,15.03873 123.03415,0 35.88496,-8.02066 71.76993,0"
     stroke="url(#linearGradient12)" stroke-width="11.1525" fill="none" stroke-linecap="round" opacity="0.95" />

  <!-- Wave 2 white outline (thin) -->
  <path d="m 44.054857,216.75409 q 61.517073,-15.03874 123.034153,0 61.51708,15.03874 123.03416,0 35.88496,-8.02066 71.76992,0"
     stroke="#ffffff" stroke-width="5" fill="none" stroke-linecap="round" opacity="0.85" />
  <!-- Wave 2 coloured -->
  <path d="m 44.054857,216.75409 q 61.517073,-15.03874 123.034153,0 61.51708,15.03874 123.03416,0 35.88496,-8.02066 71.76992,0"
     stroke="url(#linearGradient11)" stroke-width="13.1803" fill="none" stroke-linecap="round" opacity="0.95" />

  <!-- Sun white outline (thin) -->
  <ellipse cx="202.97397" cy="169.63272" rx="35.884964" ry="35.090378"
     stroke="#ffffff" stroke-width="4" fill="white" opacity="0.85" />
  <!-- Sun amber glow -->
  <ellipse cx="202.97397" cy="169.63272" rx="26.6574" ry="25.064556"
     fill="#ffb347" opacity="0.8" />
  <!-- Sun orange ring -->
  <ellipse cx="202.97397" cy="169.63272" rx="35.884964" ry="35.090378"
     stroke="url(#sunGrad)" stroke-width="12.1664" fill="none" opacity="0.95" />

  <!-- SOLARA COAST -->
  <text x="200.71423" y="262.79086"
     font-family="Verdana, Geneva, sans-serif"
     font-size="31.43px" font-weight="700"
     text-anchor="middle" letter-spacing="2"
     stroke="#ffffff" stroke-width="2.2"
     paint-order="stroke fill"
     fill="#2b4c5e"
     transform="scale(1.0112586,0.98886675)">SOLARA COAST</text>

  <!-- V I L L A -->
  <text x="200" y="283"
     font-family="Verdana, Geneva, sans-serif"
     font-size="20px" font-weight="700"
     text-anchor="middle"
     textLength="195" lengthAdjust="spacing"
     stroke="#ffffff" stroke-width="1.8"
     paint-order="stroke fill"
     fill="#52b5e5"
     transform="matrix(1.0252846,0,0,1.0025822,-2.0829519,-0.80626115)">V I L L A</text>

</svg>
